<svg xmlns:dc="http://purl.org/dc/elements/1.1/" xmlns:cc="http://creativecommons.org/ns#" xmlns:rdf="http://www.w3.org/1999/02/22-rdf-syntax-ns#" xmlns:svg="http://www.w3.org/2000/svg" xmlns="http://www.w3.org/2000/svg" xmlns:sodipodi="http://sodipodi.sourceforge.net/DTD/sodipodi-0.dtd" xmlns:inkscape="http://www.inkscape.org/namespaces/inkscape" version="1.1" x="0px" y="0px" viewBox="0 0 100 125"><g transform="translate(0,-952.36218)"><path style="text-indent:0;text-transform:none;direction:ltr;block-progression:tb;baseline-shift:baseline;color:#000000;enable-background:accumulate;" d="M 48.812529,957.73921 8.8125285,987.73852 c -0.5058,0.37324 -0.8174,0.99637 -0.8125,1.62496 l 0,55.99872 c 10e-5,1.0472 0.9528,1.9999 1.9999995,2 l 27.000001,0 c 1.0472,-10e-5 1.9999,-0.9528 2,-2 l 0,-24.9994 c 0,-6.1285 4.8714,-10.9998 10.999999,-10.9998 6.1286,0 11,4.8713 11,10.9998 l 0,24.9994 c 10e-5,1.0472 0.9528,1.9999 2,2 l 27,0 c 1.0472,-10e-5 1.9999,-0.9528 2,-2 l 0,-55.99872 c 0,-0.62859 -0.3067,-1.25172 -0.8125,-1.62496 l -40,-29.99931 c -0.9341,-0.55832 -1.5948,-0.44382 -2.374999,0 z m 1.187499,4.12491 38,28.49934 0,52.99884 -23,0 0,-22.9995 c 0,-8.2753 -6.7246,-14.9997 -15,-14.9997 -8.275399,0 -14.999999,6.7244 -14.999999,14.9997 l 0,22.9995 -23.000001,0 0,-52.99884 z" fill="#000000" fill-opacity="1" stroke="none" marker="none" visibility="visible" display="inline" overflow="visible"/></g></svg>
