<?xml version="1.0" encoding="UTF-8"?>
<svg width="3840px" height="1400px" viewBox="0 0 3840 1400" version="1.1" xmlns="http://www.w3.org/2000/svg" xmlns:xlink="http://www.w3.org/1999/xlink" style="background: #FFFFFF;">
    <!-- Generator: Sketch 44.1 (41455) - http://www.bohemiancoding.com/sketch -->
    <title>Pattern2</title>
    <desc>Created with Sketch.</desc>
    <defs></defs>
    <g id="Page-1" stroke="none" stroke-width="1" fill="none" fill-rule="evenodd">
        <g id="Pattern2" fill="#F3F3F3">
            <g id="Pattern" transform="translate(26.000000, 169.000000)">
                <rect id="Rectangle-7" x="26" y="791" width="300" height="20"></rect>
                <rect id="Rectangle-7" x="376" y="541" width="300" height="20"></rect>
                <rect id="Rectangle-7" x="675" y="914" width="300" height="20"></rect>
                <rect id="Rectangle-7" x="929" y="1036" width="300" height="20"></rect>
                <rect id="Rectangle-7" x="762" y="196" width="300" height="20"></rect>
                <rect id="Rectangle-7" x="0" y="376" width="300" height="20"></rect>
                <rect id="Rectangle-7" x="76" y="0" width="300" height="20"></rect>
                <circle id="Oval-2" cx="239" cy="1049" r="13"></circle>
                <circle id="Oval-2" cx="499" cy="809" r="13"></circle>
                <circle id="Oval-2" cx="939" cy="783" r="13"></circle>
                <circle id="Oval-2" cx="962" cy="502" r="13"></circle>
                <circle id="Oval-2" cx="176" cy="74" r="13"></circle>
                <circle id="Oval-2" cx="93" cy="528" r="13"></circle>
                <circle id="Oval-2" cx="1193" cy="257" r="13"></circle>
                <circle id="Oval-2" cx="1216" cy="17" r="13"></circle>
            </g>
            <g id="Pattern" transform="translate(1361.000000, 169.000000)">
                <rect id="Rectangle-7" x="26" y="791" width="300" height="20"></rect>
                <rect id="Rectangle-7" x="376" y="541" width="300" height="20"></rect>
                <rect id="Rectangle-7" x="675" y="914" width="300" height="20"></rect>
                <rect id="Rectangle-7" x="929" y="1036" width="300" height="20"></rect>
                <rect id="Rectangle-7" x="762" y="196" width="300" height="20"></rect>
                <rect id="Rectangle-7" x="0" y="376" width="300" height="20"></rect>
                <rect id="Rectangle-7" x="76" y="0" width="300" height="20"></rect>
                <circle id="Oval-2" cx="239" cy="1049" r="13"></circle>
                <circle id="Oval-2" cx="499" cy="809" r="13"></circle>
                <circle id="Oval-2" cx="939" cy="783" r="13"></circle>
                <circle id="Oval-2" cx="962" cy="502" r="13"></circle>
                <circle id="Oval-2" cx="176" cy="74" r="13"></circle>
                <circle id="Oval-2" cx="93" cy="528" r="13"></circle>
                <circle id="Oval-2" cx="1193" cy="257" r="13"></circle>
                <circle id="Oval-2" cx="1216" cy="17" r="13"></circle>
            </g>
            <g id="Pattern" transform="translate(2696.000000, 169.000000)">
                <rect id="Rectangle-7" x="26" y="791" width="300" height="20"></rect>
                <rect id="Rectangle-7" x="376" y="541" width="300" height="20"></rect>
                <rect id="Rectangle-7" x="675" y="914" width="300" height="20"></rect>
                <rect id="Rectangle-7" x="929" y="1036" width="300" height="20"></rect>
                <rect id="Rectangle-7" x="762" y="196" width="300" height="20"></rect>
                <rect id="Rectangle-7" x="0" y="376" width="300" height="20"></rect>
                <rect id="Rectangle-7" x="76" y="0" width="300" height="20"></rect>
                <circle id="Oval-2" cx="239" cy="1049" r="13"></circle>
                <circle id="Oval-2" cx="499" cy="809" r="13"></circle>
                <circle id="Oval-2" cx="939" cy="783" r="13"></circle>
                <circle id="Oval-2" cx="962" cy="502" r="13"></circle>
                <circle id="Oval-2" cx="176" cy="74" r="13"></circle>
                <circle id="Oval-2" cx="93" cy="528" r="13"></circle>
            </g>
        </g>
    </g>
</svg>