<?xml version="1.0" encoding="UTF-8"?>
<svg width="223px" height="72px" viewBox="0 0 223 72" version="1.1" xmlns="http://www.w3.org/2000/svg" xmlns:xlink="http://www.w3.org/1999/xlink">
    <!-- Generator: Sketch 41.2 (35397) - http://www.bohemiancoding.com/sketch -->
    <title>Mateo Logo</title>
    <desc>Created with Sketch.</desc>
    <defs></defs>
    <g id="Page-1" stroke="none" stroke-width="1" fill="none" fill-rule="evenodd">
        <g id="Desktop" transform="translate(-100.000000, -692.000000)">
            <g id="Second-Half" transform="translate(8.000000, 640.000000)">
                <g id="Big-Card" transform="translate(42.000000, 0.000000)">
                    <g id="Top" transform="translate(50.000000, 29.000000)">
                        <g id="Mateo-Logo" transform="translate(0.000000, 23.000000)">
                            <g>
                                <rect id="Mateo-Black-Rectangle" fill="#000000" x="0" y="0" width="223" height="72"></rect>
                                <path d="M146,48.5 L146,39.75 L166,39.75 L166,32.25 L146,32.25 L146,23.5 L166,23.5 L166,16 L138,16 L138,19.75 L138,52.25 L138,56 L166,56 L166,48.5 L146,48.5 Z M109,23.5 L109,56 L117,56 L117,23.5 L130,23.5 L130,16 L96,16 L96,23.5 L109,23.5 Z M84.85,45.5 L88,56 L96,56 L84,16 L74,16 L62,56 L70,56 L73.15,45.5 L84.85,45.5 Z M82.6,38 L79,26 L75.4,38 L82.6,38 Z M15,56 L23,56 L23,26 L31,56 L41,56 L49,26 L49,56 L57,56 L55,16 L45,16 L36,46 L27,16 L17,16 L15,56 Z M191,56 C200.388841,56 208,47.045695 208,36 C208,24.954305 200.388841,16 191,16 C181.611159,16 174,24.954305 174,36 C174,47.045695 181.611159,56 191,56 Z M191,48.5 C196.246705,48.5 200.5,42.9035594 200.5,36 C200.5,29.0964406 196.246705,23.5 191,23.5 C185.753295,23.5 181.5,29.0964406 181.5,36 C181.5,42.9035594 185.753295,48.5 191,48.5 Z" id="Combined-Shape" fill="#FFFFFF"></path>
                            </g>
                        </g>
                    </g>
                </g>
            </g>
        </g>
    </g>
</svg>