<svg xmlns="http://www.w3.org/2000/svg" xmlns:xlink="http://www.w3.org/1999/xlink" version="1.1" x="0px" y="0px" viewBox="0 0 100 125" style="enable-background:new 0 0 100 100;" xml:space="preserve"><style type="text/css">
	.st0{fill:none;stroke:#000000;stroke-width:2;stroke-miterlimit:10;}
	.st1{fill:#010101;}
</style><path class="st0" d="M49.7,57.2"/><path class="st0" d="M7,49.6"/><g><g><path d="M50.2,87.5c-20.7,0-37.5-16.8-37.5-37.5s16.8-37.5,37.5-37.5S87.7,29.3,87.7,50S70.9,87.5,50.2,87.5z M50.2,15.6    c-19,0-34.4,15.4-34.4,34.4s15.4,34.4,34.4,34.4c19,0,34.4-15.4,34.4-34.4C84.5,31,69.1,15.6,50.2,15.6z"/></g><g><g><path d="M51.7,59.4h-3.1v-2.5c0-3.9,2.1-7.6,5.4-9.5c2.7-1.6,4.2-4.6,3.9-7.7c-0.4-3.6-3.3-6.5-6.9-6.9c-2.3-0.2-4.4,0.4-6.1,1.9     c-1.7,1.5-2.6,3.6-2.6,5.8h-3.1c0-3.1,1.3-6.1,3.6-8.1s5.4-3.1,8.5-2.7c5,0.6,9.1,4.6,9.6,9.6c0.5,4.4-1.7,8.6-5.5,10.7     c-2.4,1.4-3.9,3.9-3.9,6.8L51.7,59.4L51.7,59.4z"/></g><g><circle class="st1" cx="50.2" cy="67.2" r="3.1"/></g></g></g></svg>
